<?xml version="1.0" encoding="UTF-8" standalone="no"?>
<!-- Created with Inkscape (http://www.inkscape.org/) -->

<svg
   version="1.1"
   id="svg2"
   width="1133.8586"
   height="1133.8586"
   viewBox="0 0 1133.8586 1133.8586"
   sodipodi:docname="starlight定稿.ai"
   xmlns:inkscape="http://www.inkscape.org/namespaces/inkscape"
   xmlns:sodipodi="http://sodipodi.sourceforge.net/DTD/sodipodi-0.dtd"
   xmlns="http://www.w3.org/2000/svg"
   xmlns:svg="http://www.w3.org/2000/svg">
  <defs
     id="defs6">
    <clipPath
       clipPathUnits="userSpaceOnUse"
       id="clipPath16">
      <path
         d="M 0,850.394 H 850.394 V 0 H 0 Z"
         id="path14" />
    </clipPath>
  </defs>
  <sodipodi:namedview
     id="namedview4"
     pagecolor="#ffffff"
     bordercolor="#000000"
     borderopacity="0.25"
     inkscape:showpageshadow="2"
     inkscape:pageopacity="0.0"
     inkscape:pagecheckerboard="0"
     inkscape:deskcolor="#d1d1d1" />
  <g
     id="g8"
     inkscape:groupmode="layer"
     inkscape:label="starlight定稿"
     transform="matrix(1.3333333,0,0,-1.3333333,0,1133.8587)">
    <g
       id="g10">
      <g
         id="g12"
         clip-path="url(#clipPath16)">
        <g
           id="g18"
           transform="translate(398.0863,308.9223)">
          <path
             d="m 0,0 c -0.012,0.106 -0.024,0.212 -0.037,0.318 -0.203,0.078 -0.406,0.224 -0.61,0.225 -8.042,0.025 -16.084,0.055 -24.126,0.007 -0.456,-0.003 -1.163,-0.569 -1.319,-1.022 -1.255,-3.634 -2.41,-7.304 -3.585,-10.966 -0.358,-1.119 -0.119,-1.718 1.247,-1.701 5.17,0.064 10.341,0.081 15.512,0.043 1.051,-0.008 1.576,0.344 1.878,1.322 0.846,2.744 1.788,5.459 2.612,8.21 0.385,1.282 1.009,2.06 2.43,2.285 C -3.981,-0.961 -1.997,-0.437 0,0 m -43.792,-0.24 c 1.819,-2.329 3.351,-4.288 4.882,-6.248 0.172,0.087 0.344,0.175 0.515,0.262 -2.314,5.087 -4.628,10.174 -7.072,15.544 H 13.21 C 13.041,8.521 12.954,7.8 12.736,7.122 10.689,0.771 8.654,-5.586 6.522,-11.909 6.191,-12.893 5.534,-13.868 4.78,-14.588 c -2.328,-2.224 -4.737,-4.369 -7.204,-6.439 -0.597,-0.501 -1.524,-0.805 -2.317,-0.843 -2.297,-0.11 -4.604,-0.025 -6.905,-0.045 -1.756,-0.015 -1.931,-0.299 -1.174,-1.939 2.651,-5.747 5.32,-11.484 7.978,-17.226 0.261,-0.563 0.493,-1.138 0.849,-1.965 -0.752,-0.098 -1.286,-0.226 -1.821,-0.228 -5.238,-0.022 -10.477,0.02 -15.713,-0.056 -1.335,-0.02 -1.925,0.558 -2.436,1.682 -2.62,5.761 -5.303,11.495 -7.977,17.232 -0.258,0.553 -0.607,1.064 -1.159,2.018 -0.556,-1.446 -1.005,-2.476 -1.354,-3.54 -1.739,-5.303 -3.466,-10.611 -5.161,-15.929 -0.269,-0.845 -0.569,-1.441 -1.605,-1.435 -5.122,0.029 -10.245,0.013 -15.368,0.028 -0.264,0.001 -0.527,0.143 -1.015,0.285 4.563,14.122 9.097,28.159 13.81,42.748"
             style="fill:#00c9ff;fill-opacity:1;fill-rule:nonzero;stroke:none"
             id="path20" />
        </g>
        <g
           id="g22"
           transform="translate(335.3099,308.9096)">
          <path
             d="m 0,0 c 0.006,0.118 0.012,0.237 0.017,0.356 -0.248,0.09 -0.496,0.257 -0.744,0.259 -2.874,0.022 -5.749,0.069 -8.62,-0.019 -0.611,-0.019 -1.295,-0.45 -1.795,-0.87 -3.736,-3.145 -7.439,-6.33 -11.143,-9.512 -1.755,-1.507 -3.487,-3.039 -5.571,-4.858 1.064,-0.199 1.609,-0.387 2.155,-0.388 4.828,-0.012 9.658,0.045 14.486,-0.002 1.336,-0.013 1.937,0.553 2.309,1.767 1.041,3.407 2.222,6.77 3.244,10.181 0.406,1.355 0.981,2.209 2.529,2.324 C -2.075,-0.684 -1.043,-0.267 0,0 m -18.489,-42.928 c 2.011,6.265 4.006,12.473 6.077,18.923 h -25.793 c -0.022,-0.113 -0.044,-0.226 -0.066,-0.339 1.604,-0.472 3.189,-1.036 4.819,-1.387 1.221,-0.263 1.514,-0.847 1.154,-1.945 -1.573,-4.807 -3.121,-9.625 -4.75,-14.414 -0.162,-0.477 -0.81,-1.123 -1.239,-1.128 -5.348,-0.058 -10.696,-0.014 -16.045,0.017 -0.145,10e-4 -0.287,0.156 -0.611,0.344 1.047,3.246 2.099,6.506 3.149,9.767 1.691,5.256 3.36,10.519 5.091,15.762 0.242,0.731 0.638,1.526 1.201,2.018 5.237,4.575 10.531,9.083 15.796,13.627 0.698,0.603 1.279,0.618 1.935,-0.052 0.549,-0.561 1.17,-1.052 1.758,-1.574 0.172,0.103 0.344,0.205 0.515,0.308 -1.816,4.01 -3.633,8.02 -5.565,12.285 0.737,0.084 1.213,0.186 1.689,0.186 12.312,0.013 24.623,0.007 36.935,0.038 1.13,0.003 1.816,-0.371 2.238,-1.445 0.505,-1.282 1.003,-2.606 1.76,-3.742 1.712,-2.568 1.379,-5.044 0.445,-7.827 C 8.34,-14.409 4.868,-25.377 1.319,-36.319 c -0.621,-1.914 -1.204,-3.846 -1.944,-5.714 -0.202,-0.513 -0.904,-1.171 -1.386,-1.178 -5.233,-0.076 -10.468,-0.039 -15.703,-0.018 -0.203,10e-4 -0.405,0.153 -0.775,0.301"
             style="fill:#00c9ff;fill-opacity:1;fill-rule:nonzero;stroke:none"
             id="path24" />
        </g>
        <g
           id="g26"
           transform="translate(171.9496,287.8432)">
          <path
             d="m 0,0 c 2.28,7.121 4.391,13.717 6.658,20.8 1.786,-2.226 3.314,-4.127 4.84,-6.029 0.16,0.104 0.321,0.208 0.482,0.311 C 9.699,20.104 7.419,25.125 5.02,30.408 H 63.909 C 62.941,27.46 62.128,24.728 61.108,22.076 60.897,21.528 59.954,21.2 59.29,20.898 53.691,18.353 48.082,15.833 42.471,13.315 c -0.464,-0.208 -0.958,-0.348 -1.907,-0.687 0.969,3.069 1.832,5.803 2.77,8.777 -0.778,0.113 -1.42,0.284 -2.063,0.286 -4.948,0.023 -9.897,-0.021 -14.845,0.034 -1.318,0.014 -1.969,-0.489 -2.347,-1.731 -0.935,-3.082 -1.983,-6.13 -2.972,-9.196 -0.598,-1.86 -0.447,-2.067 1.578,-2.069 8.401,-0.006 16.802,-0.036 25.203,0.032 1.61,0.012 2.621,-0.429 3.121,-2.021 0.308,-0.981 0.7,-1.983 1.276,-2.824 1.635,-2.389 1.376,-4.697 0.43,-7.318 -1.971,-5.462 -3.675,-11.023 -5.385,-16.575 -0.493,-1.599 -1.186,-2.278 -2.997,-2.269 -16.399,0.076 -32.8,0.042 -49.199,0.046 -0.621,0 -1.242,0.052 -2.235,0.096 0.437,1.428 0.971,2.625 1.154,3.873 0.54,3.694 2.696,5.673 6.116,7.002 4.869,1.891 9.555,4.256 14.323,6.408 0.403,0.181 0.843,0.281 1.695,0.558 -0.963,-3.119 -1.827,-5.911 -2.751,-8.905 0.779,-0.078 1.271,-0.168 1.764,-0.169 4.948,-0.01 9.898,0.034 14.846,-0.028 1.333,-0.018 1.958,0.485 2.32,1.736 0.753,2.595 1.685,5.138 2.442,7.732 0.415,1.421 1.101,2.3 2.695,2.351 0.97,0.031 1.938,0.242 2.895,0.435 0.617,0.123 1.21,0.358 1.815,0.544 -0.026,0.189 -0.054,0.378 -0.08,0.567 z"
             style="fill:#00c9ff;fill-opacity:1;fill-rule:nonzero;stroke:none"
             id="path28" />
        </g>
        <g
           id="g30"
           transform="translate(589.0345,265.9174)">
          <path
             d="m 0,0 c 0.737,2.285 1.416,4.404 2.104,6.521 1.246,3.829 2.44,7.675 3.798,11.463 0.254,0.706 1.085,1.455 1.811,1.693 1.884,0.614 3.857,0.955 5.795,1.405 -0.005,0.148 -0.009,0.297 -0.014,0.445 -0.635,0.079 -1.269,0.226 -1.905,0.228 -7.135,0.018 -14.27,-0.026 -21.403,0.051 -1.579,0.016 -2.193,-0.609 -2.636,-2.045 -1.884,-6.1 -3.923,-12.152 -5.825,-18.246 -0.437,-1.4 -1.155,-1.874 -2.61,-1.844 -4.544,0.096 -9.09,0.047 -13.636,0.064 -0.552,0.002 -1.106,0.065 -1.974,0.119 4.609,14.265 9.141,28.288 13.83,42.798 1.821,-2.249 3.4,-4.198 4.978,-6.147 0.152,0.091 0.302,0.182 0.453,0.272 -2.308,5.08 -4.615,10.16 -7.051,15.524 H -1.88 c -0.373,-1.185 -0.699,-2.247 -1.042,-3.303 -1.774,-5.473 -3.524,-10.953 -5.35,-16.408 -0.501,-1.498 -0.073,-1.964 1.443,-1.951 5.005,0.044 10.011,0.041 15.017,-0.008 1.328,-0.013 1.908,0.546 2.299,1.788 1.954,6.198 4.006,12.366 6.011,18.549 0.279,0.86 0.548,1.557 1.712,1.544 5.005,-0.059 10.011,-0.035 15.017,-0.058 0.322,-10e-4 0.643,-0.132 1.146,-0.241 C 34.236,51.587 34.161,51.034 33.992,50.512 28.695,34.09 23.386,17.672 18.091,1.249 17.806,0.363 17.478,-0.303 16.355,-0.295 11.235,-0.257 6.114,-0.271 0.993,-0.257 0.775,-0.257 0.559,-0.148 0,0"
             style="fill:#00c9ff;fill-opacity:1;fill-rule:nonzero;stroke:none"
             id="path32" />
        </g>
        <g
           id="g34"
           transform="translate(503.6019,308.6352)">
          <path
             d="m 0,0 c 1.69,-2.163 3.145,-4.022 4.598,-5.882 0.194,0.103 0.387,0.204 0.582,0.307 -2.259,4.964 -4.519,9.929 -6.91,15.184 0.994,0.079 1.595,0.168 2.198,0.168 18.188,0 36.377,-0.006 54.565,-0.018 C 57.041,9.758 57.16,9.598 56.565,7.683 56.02,5.924 55.365,4.197 54.893,2.421 54.553,1.145 53.786,0.887 52.603,0.891 42.301,0.93 31.997,0.919 21.694,0.938 18.075,0.946 18.034,0.98 16.879,-2.516 13.953,-11.365 10.952,-20.192 8.245,-29.108 7.53,-31.462 6.27,-32.304 4.108,-32.601 c -1.404,-0.191 -2.778,-0.6 -4.165,-0.912 -0.004,-0.146 -0.007,-0.292 -0.011,-0.438 0.5,-0.053 1,-0.15 1.501,-0.151 7.424,-0.018 14.849,-0.001 22.274,-0.057 1.274,-0.01 1.866,0.502 2.207,1.664 0.641,2.187 1.377,4.347 2.252,7.07 1.919,-2.442 3.504,-4.459 5.088,-6.474 0.151,0.091 0.302,0.184 0.453,0.276 -2.332,5.121 -4.663,10.241 -7.107,15.612 0.777,0.119 1.255,0.257 1.735,0.258 6.273,0.013 12.548,-0.006 18.821,0.015 1.274,0.004 1.796,-0.3 1.324,-1.724 -2.585,-7.811 -5.139,-15.634 -7.614,-23.481 -0.474,-1.506 -1.167,-2.1 -2.792,-2.094 -14.62,0.05 -29.24,0.029 -43.86,-0.007 -1.129,-0.003 -1.791,0.335 -2.248,1.404 -0.815,1.903 -1.933,3.688 -2.599,5.634 -0.355,1.036 -0.299,2.39 0.033,3.456 1.999,6.429 4.137,12.814 6.221,19.216 1.192,3.665 2.369,7.336 3.56,11.002 C -0.613,-1.694 -0.376,-1.067 0,0"
             style="fill:#00c9ff;fill-opacity:1;fill-rule:nonzero;stroke:none"
             id="path36" />
        </g>
        <g
           id="g38"
           transform="translate(446.1058,283.7377)">
          <path
             d="m 0,0 c 1.747,-1.076 3.169,-1.928 4.565,-2.819 2.957,-1.887 5.874,-3.837 8.864,-5.671 1.063,-0.652 1.202,-1.348 0.8,-2.436 -0.618,-1.672 -1.294,-3.352 -1.623,-5.092 -0.334,-1.771 -1.25,-2.127 -2.873,-2.119 -11.393,0.054 -22.788,0.027 -34.181,0.027 -5.352,0 -10.703,-0.003 -16.055,0.009 -0.661,10e-4 -1.321,0.09 -2.274,0.161 4.623,14.287 9.162,28.31 13.865,42.843 1.794,-2.265 3.321,-4.194 4.849,-6.123 0.16,0.088 0.321,0.176 0.481,0.265 -2.29,5.053 -4.58,10.105 -6.992,15.429 H -7.645 C -8.167,32.72 -8.633,31.049 -9.162,29.398 -10.516,25.18 -11.837,20.95 -13.28,16.763 -15.896,9.175 -18.573,1.608 -21.293,-5.942 c -0.182,-0.502 -0.884,-0.996 -1.439,-1.152 -2.125,-0.596 -4.29,-1.052 -6.434,-1.959 0.528,-0.06 1.056,-0.174 1.584,-0.174 7.538,-0.012 15.076,0.03 22.613,-0.043 1.475,-0.013 2.19,0.482 2.588,1.871 C -1.704,-5.038 -0.884,-2.718 0,0"
             style="fill:#00c9ff;fill-opacity:1;fill-rule:nonzero;stroke:none"
             id="path40" />
        </g>
        <g
           id="g42"
           transform="translate(239.9046,318.27)">
          <path
             d="m 0,0 c 0.889,0.054 1.491,0.122 2.093,0.122 18.131,0.009 36.261,0.011 54.392,0.011 2.462,0 2.498,-0.055 1.734,-2.408 -0.498,-1.533 -1.096,-3.039 -1.486,-4.599 -0.337,-1.347 -1.01,-1.869 -2.417,-1.85 -4.718,0.066 -9.44,-0.029 -14.158,0.053 -1.576,0.027 -2.339,-0.494 -2.831,-2.036 -4.293,-13.429 -8.676,-26.829 -12.998,-40.248 -0.333,-1.033 -0.675,-1.72 -1.953,-1.706 -4.892,0.049 -9.784,0.006 -14.677,0.012 -0.39,10e-4 -0.781,0.109 -1.434,0.207 0.42,1.499 0.762,2.922 1.214,4.311 3.813,11.708 7.695,23.394 11.42,35.128 0.598,1.883 1.68,2.532 3.412,2.765 1.735,0.233 3.457,0.577 5.205,1.265 -0.751,0.084 -1.502,0.237 -2.253,0.24 C 18.874,-8.711 12.485,-8.682 6.098,-8.737 4.576,-8.75 3.667,-8.302 3.088,-6.808 2.224,-4.58 1.123,-2.444 0,0"
             style="fill:#00c9ff;fill-opacity:1;fill-rule:nonzero;stroke:none"
             id="path44" />
        </g>
        <g
           id="g46"
           transform="translate(633.9222,265.7592)">
          <path
             d="m 0,0 c 0.381,1.401 0.633,2.51 0.983,3.587 3.984,12.248 7.962,24.499 12.028,36.72 0.23,0.693 1.118,1.447 1.843,1.642 2.059,0.553 4.193,0.831 6.304,1.612 -0.811,0.077 -1.623,0.217 -2.435,0.219 -6.327,0.02 -12.656,0.056 -18.982,-0.019 -1.422,-0.017 -2.231,0.41 -2.772,1.729 -0.74,1.807 -1.66,3.54 -2.472,5.32 -0.226,0.495 -0.339,1.042 -0.557,1.734 H 52.492 C 52.387,51.955 52.351,51.471 52.21,51.018 51.68,49.315 51.023,47.646 50.592,45.921 50.197,44.344 49.457,43.709 47.734,43.755 43.021,43.88 38.301,43.74 33.585,43.824 32.161,43.85 31.543,43.295 31.133,42.013 26.884,28.762 22.567,15.533 18.352,2.272 17.801,0.538 17.056,-0.258 15.119,-0.193 10.752,-0.048 6.377,-0.139 2.006,-0.123 1.443,-0.121 0.881,-0.056 0,0"
             style="fill:#00c9ff;fill-opacity:1;fill-rule:nonzero;stroke:none"
             id="path48" />
        </g>
        <g
           id="g50"
           transform="translate(477.4466,308.1342)">
          <path
             d="m 0,0 4.485,-5.707 c 0.17,0.102 0.339,0.203 0.509,0.306 -2.308,5.064 -4.616,10.129 -7.053,15.476 h 22.32 C 19.834,8.612 19.486,7.303 19.07,6.015 14.101,-9.363 9.098,-24.73 4.176,-40.124 3.62,-41.863 2.879,-42.633 0.924,-42.56 c -4.31,0.163 -8.63,0.041 -12.945,0.047 -0.614,10e-4 -1.227,0.065 -2.243,0.122 4.608,14.272 9.131,28.284 13.655,42.296 C -0.406,-0.063 -0.203,-0.032 0,0"
             style="fill:#00c9ff;fill-opacity:1;fill-rule:nonzero;stroke:none"
             id="path52" />
        </g>
        <g
           id="g54"
           transform="translate(316.2953,551.4921)">
          <path
             d="m 0,0 c 5.482,-33.337 24.851,-52.746 58.339,-58.388 -2.398,-0.394 -4.812,-0.708 -7.19,-1.196 -6.246,-1.282 -12.253,-3.291 -17.836,-6.406 -4.361,-2.433 -8.519,-5.169 -12.066,-8.743 -3.736,-3.765 -6.043,-8.356 -7.741,-13.298 -2.636,-7.673 -3.434,-15.636 -2.848,-23.639 0.695,-9.476 2.592,-18.763 7.286,-27.188 2.66,-4.771 5.239,-9.692 8.63,-13.923 3.601,-4.49 7.883,-8.528 12.312,-12.232 3.933,-3.288 8.467,-5.862 12.752,-8.725 5.412,-3.616 11.413,-5.997 17.521,-8.085 4.364,-1.491 8.795,-2.808 13.249,-4.007 3.193,-0.858 6.473,-1.387 9.711,-2.078 0.205,-0.044 0.384,-0.209 0.575,-0.317 -0.049,-0.203 -0.098,-0.407 -0.148,-0.611 -2.426,0.42 -4.863,0.785 -7.275,1.275 -4.31,0.875 -8.678,1.571 -12.884,2.811 -5.426,1.599 -10.82,3.409 -16.036,5.584 -6.027,2.513 -11.984,5.269 -17.708,8.4 -4.357,2.383 -8.519,5.25 -12.38,8.379 -5.256,4.26 -10.348,8.769 -15.117,13.562 -3.313,3.33 -6.018,7.277 -8.893,11.027 -1.905,2.484 -3.855,4.981 -5.383,7.698 -2.347,4.174 -4.465,8.488 -6.464,12.842 -1.894,4.124 -3.729,8.301 -5.186,12.592 -1.506,4.436 -2.469,9.052 -3.772,13.559 -1.882,6.516 -4.144,12.813 -8.236,18.418 -3.74,5.125 -8.618,8.213 -14.458,10.279 -5.28,1.868 -10.652,3.189 -16.205,3.835 -0.406,0.047 -0.802,0.191 -1.445,0.35 C -24.944,-52.948 -5.473,-33.456 0,0"
             style="fill:#00c9ff;fill-opacity:1;fill-rule:nonzero;stroke:none"
             id="path56" />
        </g>
        <g
           id="g58"
           transform="translate(450.9105,434.5527)">
          <path
             d="m 0,0 c -22.649,-5.267 -36.533,-18.901 -41.093,-41.901 -1.678,10.776 -6.274,19.979 -13.845,27.657 -7.55,7.659 -16.855,11.99 -27.362,14.06 23.124,4.847 36.705,18.881 41.399,41.865 1.563,-10.65 6.079,-19.821 13.501,-27.5 C -19.906,6.428 -10.716,1.827 0,0"
             style="fill:#00c9ff;fill-opacity:1;fill-rule:nonzero;stroke:none"
             id="path60" />
        </g>
        <g
           id="g62"
           transform="translate(487.5013,499.5219)">
          <path
             d="m 0,0 c -14.911,-3.705 -24.146,-12.694 -27.551,-27.884 -0.359,0.984 -0.845,1.941 -1.058,2.954 -1.137,5.398 -3.64,10.063 -7.395,14.071 -3.363,3.591 -7.087,6.666 -11.849,8.276 -2.335,0.789 -4.631,1.687 -7.606,2.779 7.469,1.278 13.418,4.528 18.428,9.395 5.063,4.92 7.695,11.238 9.632,17.983 1.436,-7.079 4.465,-13.042 9.469,-18.041 C -12.938,4.547 -6.916,1.571 0,0"
             style="fill:#00c9ff;fill-opacity:1;fill-rule:nonzero;stroke:none"
             id="path64" />
        </g>
        <g
           id="g66"
           transform="translate(427.7738,538.9999)">
          <path
             d="m 0,0 c -9.438,-3.024 -15.569,-8.778 -17.874,-18.446 -2.36,9.628 -8.264,15.599 -17.901,18.407 0.649,0.293 1.272,0.706 1.954,0.862 5.574,1.283 9.611,4.702 12.562,9.383 1.421,2.254 2.274,4.867 3.533,7.646 C -15.267,8.549 -9.765,2.221 0,0"
             style="fill:#00c9ff;fill-opacity:1;fill-rule:nonzero;stroke:none"
             id="path68" />
        </g>
        <g
           id="g70"
           transform="translate(577.721,458.1943)">
          <path
             d="m 0,0 c -3.516,0.985 -6.753,2.602 -9.682,4.833 -3.349,2.552 -6.011,5.736 -7.832,9.45 -2.05,4.185 -3.881,8.522 -5.324,12.95 -1.757,5.393 -2.579,11.114 -4.588,16.395 -2.662,6.997 -5.825,13.837 -9.265,20.49 -2.275,4.398 -5.466,8.316 -8.153,12.509 -3.613,5.64 -8.263,10.393 -13.017,15.004 -3.355,3.253 -7.209,5.987 -10.819,8.978 -5.397,4.475 -11.466,7.933 -17.648,11.109 -5.136,2.638 -10.526,4.87 -15.98,6.783 -6.088,2.136 -12.321,3.934 -18.594,5.455 -4.839,1.173 -9.838,1.691 -14.765,2.501 -0.304,0.05 -0.706,0 -0.893,0.176 -0.03,0.029 -0.061,0.05 -0.091,0.077 -2.251,0.177 -4.51,0.272 -6.766,0.273 0.361,-0.188 0.734,-0.305 1.116,-0.358 4.758,-0.654 9.523,-1.256 14.276,-1.939 1.526,-0.22 3.055,-0.533 4.525,-0.988 3.041,-0.942 6.067,-1.946 9.058,-3.039 4.627,-1.692 9.229,-3.455 13.821,-5.242 1.435,-0.558 2.87,-1.18 4.19,-1.964 2.906,-1.727 5.835,-3.44 8.576,-5.41 3.747,-2.693 7.521,-5.407 10.921,-8.509 3.122,-2.848 5.834,-6.161 8.596,-9.381 3.878,-4.522 7.019,-9.564 9.323,-15.038 1.67,-3.965 3.041,-8.087 4.164,-12.241 0.945,-3.491 1.362,-7.125 1.959,-10.705 0.183,-1.096 0.297,-2.224 0.262,-3.332 -0.163,-5.078 0.053,-10.223 -0.713,-15.213 -0.849,-5.541 -2.609,-10.931 -5.594,-15.823 -1.813,-2.973 -3.893,-5.715 -6.75,-7.701 -3.371,-2.343 -6.831,-4.578 -10.377,-6.645 -5.106,-2.977 -10.568,-5.051 -16.477,-5.846 -1.219,-0.163 -2.389,-0.66 -3.601,-0.903 -1.186,-0.237 -2.398,-0.347 -3.599,-0.513 32.791,-5.768 52.043,-24.882 58.141,-57.53 0.46,2.208 0.924,4.416 1.379,6.625 1.356,6.574 3.633,12.784 7.018,18.609 3.805,6.549 8.479,12.375 14.379,17.096 3.305,2.645 6.944,4.9 10.56,7.122 2.077,1.276 4.339,2.341 6.644,3.13 3.649,1.25 7.387,2.26 11.122,3.232 2.15,0.559 4.372,0.844 6.642,1.268 C 10.602,-2.803 5.278,-1.479 0,0"
             style="fill:#00c9ff;fill-opacity:1;fill-rule:nonzero;stroke:none"
             id="path72" />
        </g>
        <g
           id="g74"
           transform="translate(361.5599,565.5532)">
          <path
             d="m 0,0 c -5.86,-1.878 -9.667,-5.45 -11.099,-11.453 -1.464,5.978 -5.13,9.685 -11.114,11.429 0.403,0.182 0.79,0.438 1.213,0.535 3.461,0.797 5.968,2.92 7.8,5.826 0.883,1.399 1.412,3.021 2.193,4.747 C -9.479,5.308 -6.063,1.379 0,0"
             style="fill:#00c9ff;fill-opacity:1;fill-rule:nonzero;stroke:none"
             id="path76" />
        </g>
        <g
           id="g78"
           transform="translate(498.4622,366.4516)">
          <path
             d="m 0,0 c -7.369,-2.361 -12.156,-6.854 -13.956,-14.402 -1.843,7.517 -6.451,12.179 -13.978,14.372 0.508,0.229 0.995,0.551 1.527,0.673 4.352,1.002 7.505,3.671 9.808,7.326 1.11,1.76 1.776,3.8 2.759,5.969 C -11.92,6.675 -7.625,1.734 0,0"
             style="fill:#00c9ff;fill-opacity:1;fill-rule:nonzero;stroke:none"
             id="path80" />
        </g>
      </g>
    </g>
  </g>
</svg>
